<?xml version="1.0" encoding="UTF-8" standalone="no"?>
<svg xmlns="http://www.w3.org/2000/svg" viewBox="0 0 512 512">
  <circle cx="256" cy="256" r="220" fill="#E74C3C" />
  <path d="M256 100c-30 0-58.8 5.4-85.6 15.4C133.6 131.6 109 160 100 190c-10 33.3-5 70 15 100 20 30 55 50 95 60 15 3.3 30 5 46 5 16 0 31-1.7 46-5 40-10 75-30 95-60 20-30 25-66.7 15-100-9-30-33.5-58.4-70.4-74.6C314.8 105.4 286 100 256 100z" fill="#C0392B" />
  <path d="M215 50c-10.5 0-20 8.5-25 20-4.5 11-4.5 28.5 10 40 7.5 6 16.5 8 25 8h61c8.5 0 17.5-2 25-8 14.5-11.5 14.5-29 10-40-5-11.5-14.5-20-25-20h-81z" fill="#2ECC71" />
  <path d="M320 140l-10-30c0-5.5-4.5-10-10-10h-89c-5.5 0-10 4.5-10 10l-9 30c-1.5 4 0 8.5 3 11.5 3 3 7 4 11 2.5 8-2.5 24-6 50-6s42 3.5 50 6c1 0.5 2 0.5 3 0.5 3 0 6-1 8-3 3-3 4.5-7.5 3-11.5z" fill="#27AE60" />
</svg>